<?xml version="1.0" standalone="no"?>
<!DOCTYPE svg PUBLIC "-//W3C//DTD SVG 20010904//EN"
 "http://www.w3.org/TR/2001/REC-SVG-20010904/DTD/svg10.dtd">
<svg version="1.0" xmlns="http://www.w3.org/2000/svg"
 width="600.000000pt" height="600.000000pt" viewBox="0 0 600.000000 600.000000"
 preserveAspectRatio="xMidYMid meet">

<g transform="translate(0.000000,600.000000) scale(0.100000,-0.100000)"
fill="#000000" stroke="none">
<path d="M2981 3891 c-6 -11 -11 -27 -11 -35 0 -9 -16 -20 -39 -27 -86 -26
-143 -102 -145 -193 -1 -49 -1 -49 -43 -61 -24 -7 -58 -22 -78 -34 l-35 -20
-15 28 c-48 95 -156 109 -191 26 -27 -66 -17 -103 58 -206 9 -14 -4 -44 -79
-175 -50 -88 -104 -186 -121 -219 -88 -178 -122 -424 -80 -589 8 -33 7 -41
-11 -60 -25 -26 -41 -69 -41 -107 l0 -29 -85 0 c-69 0 -85 -3 -85 -15 0 -12
17 -15 93 -15 81 0 96 -3 112 -20 11 -13 31 -20 52 -20 19 0 41 -7 49 -15 17
-17 80 -20 89 -5 4 6 23 7 45 4 34 -6 42 -3 67 22 l28 29 487 0 486 0 27 -29
c23 -25 32 -28 66 -23 21 3 42 1 45 -4 9 -15 80 -10 94 6 7 8 27 15 45 15 18
0 44 9 58 20 21 16 40 20 111 20 70 0 86 3 86 15 0 12 -16 15 -85 15 l-85 0 0
34 c0 43 -15 85 -42 113 -11 12 -17 26 -14 32 18 29 27 181 16 280 -19 178
-53 264 -213 545 -75 131 -88 161 -79 175 75 103 85 140 58 206 -35 83 -143
69 -191 -26 l-15 -28 -35 20 c-20 12 -54 27 -78 34 -37 11 -42 16 -40 41 0 16
-5 52 -13 81 -17 62 -71 114 -140 133 -35 10 -44 16 -38 29 13 31 9 46 -13 49
-14 2 -26 -4 -32 -17z m106 -107 c47 -23 84 -75 90 -127 4 -36 1 -48 -22 -75
-31 -37 -77 -52 -162 -52 -121 0 -182 48 -169 133 14 83 81 136 174 137 30 0
69 -7 89 -16z m-543 -205 c15 -11 36 -38 46 -60 23 -45 30 -47 76 -18 18 11
57 29 86 39 l52 18 28 -23 c38 -32 117 -49 199 -42 62 5 139 33 153 56 8 13
57 -2 135 -41 70 -35 65 -37 103 30 41 75 107 77 127 5 9 -32 7 -44 -10 -78
-11 -22 -32 -52 -46 -67 -33 -34 -31 -39 91 -253 162 -284 190 -370 191 -580
0 -160 -7 -201 -33 -189 -9 4 -45 9 -79 12 -77 5 -133 -19 -192 -83 -32 -35
-41 -52 -41 -80 l0 -35 -425 0 -425 0 0 24 c0 50 -76 134 -148 162 -41 16
-132 16 -173 -1 -24 -9 -30 16 -36 140 -9 191 30 338 140 535 29 52 79 141
110 197 31 56 57 108 57 115 0 8 -10 24 -23 36 -13 12 -33 42 -45 65 -18 36
-20 49 -11 80 16 57 49 70 93 36z m-106 -1250 c72 -35 133 -139 77 -131 -11 2
-27 4 -35 5 -9 1 -16 -9 -20 -28 -6 -37 -36 -45 -56 -16 -20 28 -30 26 -46 -6
-19 -38 -37 -40 -51 -4 -11 31 -30 40 -42 21 -11 -18 -54 -11 -66 11 -13 26
-6 93 13 116 21 26 90 53 137 53 26 0 64 -9 89 -21z m1298 2 c53 -24 74 -55
74 -108 0 -32 -5 -46 -22 -57 -19 -14 -24 -14 -38 -1 -24 22 -37 19 -52 -12
-16 -34 -39 -36 -53 -5 -11 25 -40 29 -49 6 -9 -23 -51 -14 -52 11 -1 11 -2
26 -3 34 -1 13 -15 12 -53 -4 -42 -17 -12 69 36 105 71 53 140 63 212 31z"/>
<path d="M2495 3510 c-9 -15 3 -47 22 -54 25 -10 51 20 37 42 -13 20 -49 28
-59 12z"/>
<path d="M3450 3505 c-14 -17 -5 -45 17 -52 16 -6 44 27 41 46 -4 22 -42 26
-58 6z"/>
<path d="M2628 3246 c-50 -14 -98 -41 -98 -56 0 -15 24 -12 80 10 28 11 64 20
80 20 20 0 30 5 30 15 0 8 -4 15 -9 15 -5 0 -15 2 -23 4 -7 3 -34 -1 -60 -8z"/>
<path d="M3298 3253 c-29 -7 -21 -33 10 -33 15 0 55 -10 89 -22 35 -12 66 -19
69 -15 25 25 -116 83 -168 70z"/>
<path d="M2827 2983 c-15 -14 -6 -40 22 -67 34 -33 61 -29 61 8 0 37 -62 81
-83 59z"/>
<path d="M3116 2969 c-19 -15 -26 -29 -24 -48 4 -36 32 -38 63 -5 48 51 15 96
-39 53z"/>
<path d="M2980 2746 l0 -144 -34 -21 c-51 -32 -101 -28 -136 11 -23 25 -33 29
-42 20 -30 -30 46 -102 108 -102 17 0 52 11 78 25 l46 24 46 -24 c26 -14 61
-25 78 -25 62 0 138 72 108 102 -9 9 -19 5 -42 -20 -35 -39 -85 -43 -136 -11
l-34 21 0 144 c0 137 -1 144 -20 144 -19 0 -20 -7 -20 -144z"/>
<path d="M2840 2347 c0 -24 67 -42 160 -42 93 0 160 18 160 42 0 12 -7 14 -37
7 -21 -5 -76 -9 -123 -9 -47 0 -102 4 -122 9 -31 7 -38 5 -38 -7z"/>
</g>
</svg>
